<?xml version="1.0" encoding="UTF-8" standalone="no"?>
<!-- Created with Inkscape (http://www.inkscape.org/) -->

<svg
   version="1.1"
   id="svg2"
   width="576"
   height="576"
   viewBox="0 0 576 576"
   sodipodi:docname="UsulALFiqh.svg"
   inkscape:version="1.1.2 (0a00cf5339, 2022-02-04)"
   xmlns:inkscape="http://www.inkscape.org/namespaces/inkscape"
   xmlns:sodipodi="http://sodipodi.sourceforge.net/DTD/sodipodi-0.dtd"
   xmlns="http://www.w3.org/2000/svg"
   xmlns:svg="http://www.w3.org/2000/svg"
   xmlns:rdf="http://www.w3.org/1999/02/22-rdf-syntax-ns#"
   xmlns:cc="http://creativecommons.org/ns#"
   xmlns:dc="http://purl.org/dc/elements/1.1/">
  <title
     id="title20833">Usul Al-Fiqh Caligraphy</title>
  <defs
     id="defs6">
    <inkscape:path-effect
       effect="offset"
       id="path-effect19976"
       is_visible="true"
       lpeversion="1"
       linejoin_type="miter"
       unit="mm"
       offset="0"
       miter_limit="4"
       attempt_force_join="false"
       update_on_knot_move="true" />
    <filter
       style="color-interpolation-filters:sRGB;"
       inkscape:label="Drop Shadow"
       id="filter19988"
       x="-0.065058616"
       y="-0.065058616"
       width="1.1301172"
       height="1.1301172">
      <feFlood
         flood-opacity="0.498039"
         flood-color="rgb(0,0,0)"
         result="flood"
         id="feFlood19978" />
      <feComposite
         in="flood"
         in2="SourceGraphic"
         operator="in"
         result="composite1"
         id="feComposite19980" />
      <feGaussianBlur
         in="composite1"
         stdDeviation="3"
         result="blur"
         id="feGaussianBlur19982" />
      <feOffset
         dx="0"
         dy="0"
         result="offset"
         id="feOffset19984" />
      <feComposite
         in="SourceGraphic"
         in2="offset"
         operator="over"
         result="fbSourceGraphic"
         id="feComposite19986" />
      <feColorMatrix
         result="fbSourceGraphicAlpha"
         in="fbSourceGraphic"
         values="0 0 0 -1 0 0 0 0 -1 0 0 0 0 -1 0 0 0 0 1 0"
         id="feColorMatrix20130" />
      <feFlood
         id="feFlood20132"
         flood-opacity="0.498039"
         flood-color="rgb(0,0,0)"
         result="flood"
         in="fbSourceGraphic" />
      <feComposite
         in2="fbSourceGraphic"
         id="feComposite20134"
         in="flood"
         operator="in"
         result="composite1" />
      <feGaussianBlur
         id="feGaussianBlur20136"
         in="composite1"
         stdDeviation="5.1"
         result="blur" />
      <feOffset
         id="feOffset20138"
         dx="0"
         dy="0"
         result="offset" />
      <feComposite
         in2="offset"
         id="feComposite20140"
         in="fbSourceGraphic"
         operator="over"
         result="fbSourceGraphic" />
      <feColorMatrix
         result="fbSourceGraphicAlpha"
         in="fbSourceGraphic"
         values="0 0 0 -1 0 0 0 0 -1 0 0 0 0 -1 0 0 0 0 1 0"
         id="feColorMatrix20160" />
      <feFlood
         id="feFlood20162"
         flood-opacity="0.498039"
         flood-color="rgb(0,0,0)"
         result="flood"
         in="fbSourceGraphic" />
      <feComposite
         in2="fbSourceGraphic"
         id="feComposite20164"
         in="flood"
         operator="in"
         result="composite1" />
      <feGaussianBlur
         id="feGaussianBlur20166"
         in="composite1"
         stdDeviation="7"
         result="blur" />
      <feOffset
         id="feOffset20168"
         dx="0"
         dy="0"
         result="offset" />
      <feComposite
         in2="offset"
         id="feComposite20170"
         in="fbSourceGraphic"
         operator="over"
         result="composite2" />
    </filter>
  </defs>
  <sodipodi:namedview
     id="namedview4"
     pagecolor="#505050"
     bordercolor="#eeeeee"
     borderopacity="1"
     inkscape:pageshadow="0"
     inkscape:pageopacity="0"
     inkscape:pagecheckerboard="0"
     showgrid="false"
     showguides="true"
     inkscape:guide-bbox="true"
     inkscape:zoom="0.52541962"
     inkscape:cx="292.14744"
     inkscape:cy="326.40578"
     inkscape:window-width="1366"
     inkscape:window-height="704"
     inkscape:window-x="0"
     inkscape:window-y="0"
     inkscape:window-maximized="1"
     inkscape:current-layer="g8" />
  <g
     inkscape:groupmode="layer"
     inkscape:label="Image"
     id="g8">
    <g
       id="g20799">
      <path
         sodipodi:type="star"
         style="opacity:1;fill:#055857;fill-opacity:1;stroke:none;stroke-width:3.1;stroke-linecap:round;stroke-linejoin:round;stop-color:#000000;filter:url(#filter19988)"
         id="path1289"
         inkscape:flatsided="false"
         sodipodi:sides="40"
         sodipodi:cx="288"
         sodipodi:cy="288"
         sodipodi:r1="278.51807"
         sodipodi:r2="263.79572"
         sodipodi:arg1="2.356266"
         sodipodi:arg2="2.4352744"
         inkscape:rounded="0"
         inkscape:randomized="0"
         d="M 91.043904,484.92793 87.315664,459.21325 62.662445,451.6927 63.002768,425.71138 39.829544,414.42681 44.230051,388.81861 23.107424,374.04787 31.459759,349.44334 12.907838,331.55015 25.006339,308.55514 9.4819343,287.98008 25.028696,267.16079 12.91407,244.4105 l 18.612209,-18.13092 -8.406546,-24.36534 21.219363,-14.9961 -4.491468,-25.38044 23.304025,-11.49204 -0.465795,-25.77058 24.814865,-7.70501 3.571347,-25.526166 25.71468,-3.72824 7.52055,-24.653219 25.98132,0.340323 11.28457,-23.173224 25.6082,4.400507 14.77074,-21.122627 24.60453,8.352335 17.89319,-18.551921 22.99501,12.098501 20.57506,-15.5244047 20.81929,15.5467617 22.75029,-12.114626 18.13092,18.612209 24.36534,-8.406546 14.9961,21.219363 25.38044,-4.491468 11.49204,23.304025 25.77058,-0.465795 7.70501,24.814865 25.52617,3.571347 3.72824,25.71468 24.65322,7.52055 -0.34033,25.98132 23.17323,11.28457 -4.40051,25.6082 21.12263,14.77074 -8.35234,24.60453 18.55192,17.89319 -12.0985,22.99501 15.52441,20.57506 -15.54677,20.81929 12.11463,22.75029 -18.61221,18.13092 8.40655,24.36534 -21.21937,14.9961 4.49147,25.38044 -23.30402,11.49204 0.46579,25.77058 -24.81486,7.70501 -3.57135,25.52617 -25.71468,3.72824 -7.52055,24.65322 -25.98132,-0.34033 -11.28457,23.17323 -25.6082,-4.40051 -14.77074,21.12263 -24.60453,-8.35234 -17.89319,18.55192 -22.99501,-12.0985 -20.57506,15.52441 -20.81929,-15.54677 -22.75029,12.11463 -18.13092,-18.61221 -24.36534,8.40655 -14.9961,-21.21937 -25.38044,4.49147 -11.49204,-23.30402 -25.77058,0.46579 -7.70501,-24.81486 z"
         inkscape:path-effect="#path-effect19976" />
      <circle
         style="opacity:1;fill:#ffffff;fill-rule:evenodd;stroke-width:2.69188"
         id="path1679-3-6"
         cx="288"
         cy="288"
         r="248.24893" />
      <circle
         style="opacity:1;fill:#055857;fill-opacity:1;fill-rule:evenodd;stroke-width:2.59729"
         id="path1679-3-8"
         cx="288"
         cy="288"
         r="239.5269" />
      <circle
         style="opacity:1;fill:#ffffff;fill-rule:evenodd;stroke-width:2.53468"
         id="path1679-3"
         cx="288"
         cy="288"
         r="233.75275" />
      <circle
         style="fill:#055857;fill-opacity:1;fill-rule:evenodd;stroke-width:2.39005"
         id="path1679"
         cx="288"
         cy="288"
         r="220.41373" />
      <path
         style="opacity:1;fill:#ffffff;stroke-width:0.703583"
         d="m 281.58026,465.54668 c -1.57148,-2.39837 -2.01371,-6.37232 -1.09438,-9.83407 0.83336,-3.13801 1.35874,-4.46997 4.46288,-11.31459 1.0139,-2.23565 1.84346,-4.33402 1.84346,-4.66303 0,-0.81607 2.05629,-2.46665 2.50902,-2.01396 0.43178,0.43185 -1.38675,5.47998 -3.26045,9.05062 -0.73028,1.39165 -1.67519,4.15019 -2.0998,6.13007 -0.67379,3.14178 -0.60865,3.82413 0.51192,5.36293 1.57389,2.16128 2.64931,2.25534 3.98492,0.3485 2.0144,-2.87597 2.01792,0.11391 0.005,4.13917 -1.60119,3.20173 -2.38102,4.04745 -3.89307,4.22209 -1.35627,0.15665 -2.19571,-0.24698 -2.96937,-1.42773 z m 41.56376,-4.53658 c -0.25793,-0.25798 -0.47365,-1.60358 -0.47928,-2.99023 -0.019,-4.72029 -3.82433,-13.46294 -8.1653,-18.76057 -2.68368,-3.27509 -3.78535,-3.85091 -3.78535,-1.9785 0,1.46071 -1.07768,1.03051 -6.29644,-2.51348 -2.28671,-1.55288 -4.35405,-3.44207 -4.59404,-4.19819 -0.48759,-1.53632 1.71477,-6.35081 3.90882,-8.54484 1.3613,-1.36134 1.46719,-1.36569 3.56569,-0.14671 3.53066,2.05088 9.11683,9.40314 13.54033,17.8212 2.70549,5.14865 4.31817,7.54994 4.64604,6.91787 0.27616,-0.53246 0.90811,-4.73438 1.40435,-9.3376 1.41209,-13.09931 4.74307,-21.63223 8.84658,-22.66214 2.88089,-0.72306 9.43695,3.46639 11.50028,7.34886 0.64723,1.21782 -1.65272,7.14855 -2.77219,7.14855 -0.31344,0 -1.99473,-1.42476 -3.7361,-3.16613 -3.54578,-3.54579 -5.17682,-3.89996 -7.29032,-1.58306 -1.8564,2.03498 -2.77774,6.42003 -3.73272,17.76548 -1.26919,15.07797 -1.42088,15.91477 -3.20932,17.70322 -1.69487,1.69482 -2.53691,1.99039 -3.35103,1.17627 z M 216.7203,460.09685 c -4.68545,-1.00444 -9.33434,-3.53804 -12.94491,-7.05485 -6.58025,-6.40935 -9.30043,-14.62933 -9.2447,-27.93616 0.0424,-10.13048 1.37536,-18.61442 4.70132,-29.92314 1.33464,-4.53796 2.42662,-8.4276 2.42662,-8.64366 0,-0.21604 -0.60821,-0.0673 -1.35159,0.33053 -2.81717,1.50771 -16.77897,5.743 -23.57896,7.15265 -5.9128,1.22574 -8.59308,1.40187 -16.22907,1.06649 -14.22305,-0.62471 -22.29248,-3.4477 -28.91714,-10.11633 -4.35699,-4.38592 -7.56734,-11.41382 -8.7779,-19.21611 -0.80424,-5.18344 -0.50212,-27.57206 0.43265,-32.06144 0.41742,-2.00469 0.2587,-2.2638 -1.8334,-2.99311 -7.38158,-2.57323 -11.58258,-9.6283 -14.50699,-24.36271 -1.61146,-8.11917 -1.52425,-34.23356 0.14081,-42.16788 l 1.20296,-5.73231 -1.83681,-2.7067 c -1.01025,-1.48868 -2.19028,-4.00886 -2.6223,-5.6004 -1.04672,-3.85607 -0.38755,-14.63292 1.1668,-19.07613 2.73998,-7.8324 6.48574,-16.98569 9.50148,-23.21825 0.74898,-1.54789 2.7217,-5.95807 4.38384,-9.8004 3.12418,-7.22212 4.73058,-9.11305 4.72439,-5.56117 -0.004,2.47223 -2.83947,10.42451 -8.00891,22.46397 -4.64521,10.81856 -5.78415,15.7815 -4.61668,20.11714 0.92009,3.41697 5.37126,8.31142 7.55866,8.31142 1.51828,0 4.67546,-3.27592 5.42099,-5.62487 0.56098,-1.76747 2.46375,-1.86015 2.46375,-0.12 0,1.91081 -2.69744,9.78245 -4.7199,13.77361 -3.04734,6.01362 -5.67242,8.14011 -10.8626,8.7994 -2.06725,0.2626 -2.78702,28.97239 -0.92739,36.99094 3.67549,15.84838 10.36214,23.95841 16.86577,20.45597 5.051,-2.72015 9.7956,-11.34044 14.54685,-26.42972 3.76296,-11.95065 5.64235,-16.36173 9.60154,-22.53571 5.83695,-9.10213 10.56101,-12.6307 16.9241,-12.64119 4.89862,-0.008 8.03551,3.3382 16.48524,17.58565 4.01778,6.77455 6.91951,10.55376 8.10333,10.55376 0.35815,0 1.04532,0.47491 1.52706,1.05537 1.94577,2.34451 18.16854,-7e-4 17.81003,-2.57491 -0.0722,-0.51865 -0.65572,-2.83837 -1.29663,-5.15492 -1.83998,-6.65052 -1.19187,-14.28504 1.72378,-20.30567 6.43265,-13.283 15.64449,-24.38146 20.23687,-24.38146 2.53359,0 6.8843,4.74599 10.07321,10.98841 2.32488,4.55105 2.47632,5.27675 2.70909,12.98148 0.37024,12.25534 -1.3947,17.61753 -8.43974,25.64138 -1.48447,1.69074 -1.81583,2.4901 -1.192,2.87565 0.4752,0.29369 5.12232,0.6784 10.32693,0.85492 l 9.46292,0.32094 -0.49289,-5.19621 c -0.27109,-2.8579 -0.76378,-8.04571 -1.09487,-11.52844 -0.33108,-3.48274 -0.77281,-7.5987 -0.98161,-9.14659 -0.20879,-1.54788 -0.87733,-8.51336 -1.48564,-15.47883 -1.03923,-11.89977 -1.37155,-15.39235 -3.14649,-33.06842 -0.38857,-3.86971 -0.89053,-10.99349 -1.11544,-15.83063 -0.6483,-13.94266 -1.58313,-20.76809 -3.22574,-23.55211 -1.94328,-3.29361 -1.5602,-6.31128 2.09492,-16.50263 3.06228,-8.5384 3.54831,-9.42781 4.72096,-8.63911 1.13618,0.76417 5.81586,12.75836 9.11608,23.36485 1.02346,3.28925 2.12376,6.61368 2.44511,7.38762 0.32136,0.77394 1.90255,5.49581 3.51377,10.49303 2.11396,6.55652 2.75499,9.47689 2.3027,10.49051 -0.60042,1.3456 -0.70895,1.31858 -2.58159,-0.64286 -1.07515,-1.12613 -2.76011,-3.23481 -3.74435,-4.68595 -0.98424,-1.45114 -2.11013,-2.63843 -2.50198,-2.63843 -0.77459,0 -0.34284,12.25013 0.84311,23.92183 1.21136,11.92176 2.23626,21.82443 4.66039,45.02934 0.6266,5.99805 1.35092,13.43844 1.60962,16.53421 0.41149,4.92409 0.6482,5.65414 1.89107,5.83222 0.78139,0.11196 2.10676,-0.4356 2.94527,-1.21679 1.25151,-1.16596 1.41631,-1.79779 0.92014,-3.52781 -1.1434,-3.98681 -1.54803,-14.37806 -0.74998,-19.26002 1.16152,-7.10542 4.92285,-14.44698 11.5211,-22.48742 5.36781,-6.54109 9.00733,-7.05094 14.19731,-1.98889 5.70901,5.56821 6.83341,8.26642 7.21743,17.31971 0.29818,7.0291 0.155,8.2549 -1.55999,13.35602 -1.03849,3.08912 -3.12841,7.43342 -4.64414,9.654 -2.61065,3.82456 -2.68431,4.07574 -1.39774,4.76431 0.74699,0.39979 3.67193,1.08591 6.49977,1.52472 6.01388,0.9332 17.25694,-0.0498 18.21015,-1.59214 0.64434,-1.04259 0.2509,-15.08301 -0.82566,-29.46587 -0.68444,-9.14391 -1.32175,-24.17406 -2.71484,-64.02609 -1.17449,-33.60067 -2.59644,-47.37171 -5.41133,-52.40812 -1.72624,-3.08861 -1.83333,-6.29432 -0.28235,-8.45185 0.61585,-0.85666 3.35947,-9.69527 3.97187,-12.79542 0.82326,-4.16733 2.29002,-3.46211 5.00037,2.4042 1.38029,2.98746 2.75741,6.23101 3.0603,7.2079 0.30282,0.97688 2.01528,5.73381 3.80547,10.57095 1.7902,4.83713 4.20356,11.6443 5.36307,15.12704 1.1595,3.48274 2.44347,7.00302 2.85331,7.82284 0.87955,1.75945 0.59368,3.90854 -0.57138,4.29644 -0.65482,0.21803 -3.19244,-2.72493 -7.07277,-8.20267 -0.11877,-0.16768 -0.4816,-0.009 -0.80631,0.3518 -0.58981,0.65612 -0.13262,15.32262 1.32548,42.51989 2.98123,55.60688 3.11259,60.15313 2.13045,73.7534 -1.05052,14.54745 -2.09787,17.73872 -7.64077,23.28165 -4.32064,4.32066 -6.8859,5.07425 -17.65706,5.18716 -8.95113,0.0938 -14.46955,-0.98194 -21.21368,-4.13546 l -3.91689,-1.83152 -4.52611,2.8546 c -8.40985,5.30407 -7.48182,3.03864 -7.88142,19.23947 -0.32065,12.99944 -0.83646,17.2357 -2.59496,21.31201 -2.18197,5.05793 -3.75389,8.11596 -4.80348,9.34475 -0.66395,0.77729 -2.51567,2.95313 -4.11495,4.8352 -3.53879,4.16453 -11.83732,12.63344 -14.65967,14.96065 -5.23803,4.31909 -19.37243,13.17664 -27.90561,17.48749 -10.63454,5.37245 -9.30389,3.64512 -13.40253,17.398 -2.97697,9.98917 -3.50403,21.27043 -1.29841,27.79154 1.88498,5.57311 4.95621,9.75775 9.1642,12.48651 4.70107,3.04849 9.16823,4.05793 17.58959,3.97465 9.94634,-0.0984 16.85912,-2.10239 28.11294,-8.15005 5.36047,-2.88065 19.80176,-12.27863 22.2767,-14.49703 0.73737,-0.66094 2.78932,-2.30985 4.55991,-3.66425 5.25114,-4.01681 12.43154,-10.55207 13.66936,-12.44121 1.88004,-2.86937 -0.56843,-7.34257 -2.86901,-5.24154 -0.81658,0.74568 -11.37807,3.42389 -15.97288,4.05043 -2.32935,0.31763 -4.54052,0.0794 -7.2898,-0.78533 -7.79649,-2.45231 -11.18151,-7.67643 -11.17314,-17.2436 0.006,-6.40739 2.01328,-11.25762 7.41659,-17.91733 5.62325,-6.93077 10.486,-8.82402 16.3602,-6.36963 3.59392,1.50164 10.5955,8.25172 13.96749,13.46575 1.59672,2.46893 3.25478,4.48599 3.6846,4.48236 2.25231,-0.019 8.62509,-4.89061 15.07653,-11.52505 3.99262,-4.10581 7.55451,-7.4651 7.91531,-7.4651 0.36087,0 0.66742,0.87068 0.68121,1.93485 0.0359,2.75671 1.69198,9.33458 2.97517,11.81607 1.484,2.86972 4.53931,5.81885 7.69756,7.43009 l 2.62507,1.33921 2.48519,-5.37874 c 1.36678,-2.9583 2.48513,-5.44192 2.48513,-5.51914 0,-0.24094 6.59356,-11.06163 9.44005,-15.49205 6.35209,-9.88675 17.06288,-20.99933 24.70309,-25.62977 7.15601,-4.33697 16.18024,-3.70586 26.36503,1.84382 8.35076,4.55037 14.33741,10.24869 17.60415,16.75633 2.58602,5.15157 3.23782,9.94846 2.10625,15.50093 -2.37269,11.64234 -11.29357,21.90098 -24.63548,28.32975 -5.81026,2.79965 -7.24564,3.24046 -16.886,5.18558 -4.93712,0.99615 -38.31202,1.26166 -43.01744,0.34222 -2.46459,-0.48158 -2.62923,-0.38469 -4.35687,2.56325 -1.92283,3.2811 -3.7698,5.16257 -4.42484,4.50754 -0.22191,-0.22193 0.28558,-2.24529 1.12784,-4.49635 l 1.53135,-4.09283 -1.52396,-1.05669 c -6.38424,-4.42686 -9.84426,-9.45123 -9.84426,-14.29512 0,-3.08083 -0.78625,-3.29288 -2.50173,-0.67471 -2.04482,3.12072 -7.42111,8.60189 -11.58183,11.80765 -3.63956,2.8042 -3.94041,3.27023 -4.82489,7.47318 -2.89679,13.76573 -5.83411,18.99801 -16.35511,29.13353 -15.2688,14.70938 -35.33417,27.53004 -48.37582,30.90947 -5.38864,1.39633 -14.84127,1.9509 -18.79741,1.1028 z m 67.96117,-76.56896 c 0,-1.51845 -5.2002,-6.59303 -7.94842,-7.75641 -3.39738,-1.43819 -6.28143,-1.01837 -9.12907,1.32889 -3.51301,2.89572 -3.4146,4.58327 0.36739,6.29997 2.28796,1.03855 4.6013,1.36095 9.85016,1.37277 6.13092,0.0138 6.85994,-0.11852 6.85994,-1.24522 z m 90.52449,-0.49323 c 12.09115,-2.30287 20.26376,-5.45664 33.13026,-12.78475 2.67629,-1.52424 2.98981,-1.97703 2.98566,-4.31186 -0.007,-3.8516 -4.80871,-10.20196 -12.27613,-16.235 -11.04485,-8.92334 -19.19481,-10.01375 -29.53833,-3.95204 -6.16423,3.61248 -14.38441,12.22475 -19.61098,20.54643 -3.17977,5.06278 -8.22468,14.81638 -8.22468,15.90123 0,1.46482 1.71787,1.65668 15.94461,1.78089 8.18549,0.0715 13.85124,-0.2329 17.58959,-0.9449 z m -199.97407,-6.08537 c 5.92742,-1.11689 17.50009,-4.98004 24.07641,-8.03709 3.03405,-1.41041 7.09952,-3.2982 9.03437,-4.19511 12.5803,-5.83165 39.83486,-23.33278 47.40654,-30.44145 l 3.69134,-3.46562 -0.41844,-8.014 c -0.23013,-4.4077 -0.76098,-10.90766 -1.17965,-14.44435 l -0.76123,-6.43035 -8.72113,0.37664 c -7.05667,0.30475 -9.61163,0.13559 -13.38707,-0.88637 -5.10982,-1.38317 -9.86769,-3.78205 -11.85365,-5.97651 -1.62379,-1.79427 -1.91313,-1.77418 -5.30748,0.36858 -7.59714,4.79586 -11.22141,6.13834 -17.54498,6.4989 -6.8797,0.39226 -9.73219,-0.26341 -15.18487,-3.49037 -3.40669,-2.01612 -6.06612,-5.22983 -9.20054,-11.11814 -0.72097,-1.35439 -1.50563,-2.62085 -1.7437,-2.81433 -0.23807,-0.19349 -0.65441,-1.06176 -0.9252,-1.92951 -0.27078,-0.86775 -1.73354,-3.14796 -3.25057,-5.06715 -4.99779,-6.32268 -9.61351,-5.5227 -14.91031,2.58422 -3.99684,6.11729 -6.22461,10.9788 -9.4375,20.59486 -0.58183,1.74137 -1.31579,3.79935 -1.63103,4.57329 -0.31524,0.77394 -1.40532,4.13948 -2.42239,7.47897 -2.90163,9.5273 -9.38186,18.20182 -13.59754,18.20182 -1.26972,0 -1.50384,0.58345 -1.92769,4.80394 -1.1139,11.09174 3.2932,24.27399 10.53706,31.51785 4.07958,4.07958 11.87145,8.31132 17.19273,9.33732 4.72738,0.91148 16.56729,0.89712 21.46652,-0.026 z m -12.57891,-11.72132 c 0.75017,-0.69708 3.89684,-2.63627 6.9926,-4.3093 3.09577,-1.67304 6.46908,-3.6356 7.49624,-4.36125 1.02716,-0.72565 2.08763,-1.31936 2.35659,-1.31936 0.92949,0 22.52879,-15.00013 27.43709,-19.05433 7.45861,-6.1607 9.49838,-8.01995 9.49838,-8.65776 0,-0.31987 -1.26645,-2.17218 -2.81433,-4.11624 -2.13838,-2.6857 -2.80835,-4.14628 -2.7894,-6.08119 0.0708,-7.22948 10.21963,-14.64668 15.12898,-11.05688 1.08655,0.79451 1.35404,1.87314 1.36574,5.50724 0.0118,3.67808 -0.36736,5.22161 -2.03736,8.29296 -1.93474,3.55824 -2.00765,3.98472 -1.27686,7.46877 0.76251,3.63531 0.17452,8.17545 -1.1661,9.00401 -0.31519,0.19479 -0.93815,-0.86435 -1.38435,-2.35366 -0.44622,-1.4893 -1.30108,-3.11432 -1.89973,-3.61115 -0.92459,-0.76735 -1.42664,-0.48866 -3.33523,1.85139 -6.81707,8.35816 -12.14927,11.98428 -40.36018,27.44661 -11.65277,6.38686 -16.39378,8.3067 -13.21208,5.35014 z m 59.38482,-44.41924 c 0.40058,-0.7485 0.72833,-2.91397 0.72833,-4.81215 0,-4.2239 -1.63081,-5.41338 -5.64365,-4.1164 -3.45582,1.11696 -3.437,2.92161 0.0725,6.94744 3.24501,3.72246 3.7913,3.94593 4.84285,1.98111 z m -55.08928,19.18502 c -0.25799,-0.25797 -0.46906,-1.35674 -0.46906,-2.44169 0,-4.31403 -7.22115,-16.65584 -8.51776,-14.55787 -0.71526,1.15732 -4.50234,-0.7027 -7.21862,-3.54543 l -1.77003,-1.85241 1.59325,-3.16613 c 0.98108,-1.94962 2.14159,-3.24727 3.0204,-3.37731 2.09246,-0.30963 7.78687,6.3614 11.53113,13.50877 3.56379,6.80287 4.05046,6.67995 4.64546,-1.17333 0.7652,-10.09977 3.76954,-16.8722 7.65567,-17.25755 1.5764,-0.15631 2.84225,0.42731 5.07852,2.34147 3.18301,2.72454 3.44032,3.47149 2.16221,6.27664 -1.07195,2.35269 -1.65073,2.26937 -4.95165,-0.71281 -1.52494,-1.37769 -3.14637,-2.38384 -3.6032,-2.23589 -1.95243,0.63233 -3.27369,5.53927 -4.05762,15.0693 -0.43992,5.34798 -1.11951,10.59427 -1.51021,11.65844 -0.66286,1.80549 -2.49885,2.55544 -3.58849,1.4658 z m 62.33219,-65.93639 c 5.54321,-3.62004 11.07501,-8.41275 11.07501,-9.59531 0,-2.93121 -9.64494,-14.7615 -12.03468,-14.7615 -1.80217,0 -6.27522,4.15757 -10.4027,9.66902 -3.22696,4.30897 -3.37239,4.69102 -2.73761,7.19186 0.54808,2.15925 7.03689,11.28246 8.02457,11.28246 0.1525,0 2.88643,-1.70394 6.07541,-3.78653 z m 60.40539,-2.74649 c 4.34976,-3.03115 7.10042,-5.43699 8.48922,-7.42506 1.08598,-1.55462 1.04813,-1.84053 -0.68641,-5.18375 -2.51391,-4.84551 -7.62192,-10.40868 -9.55707,-10.40868 -2.21597,0 -10.44906,8.91241 -11.92548,12.90946 -0.32805,0.88812 0.22872,2.22639 1.75628,4.2215 3.25624,4.25293 7.09301,8.20181 7.9411,8.17317 0.40518,-0.0137 2.19725,-1.04267 3.98236,-2.28664 z m 55.15179,169.76437 c -0.25385,-0.41075 0.46493,-0.70359 1.72694,-0.70359 1.18899,0 2.71161,-0.28843 3.38354,-0.64095 0.67199,-0.35253 3.06016,-1.52152 5.3072,-2.59775 3.0183,-1.44568 6.43687,-4.29311 13.08813,-10.90147 10.64282,-10.57426 12.89295,-11.88612 20.42439,-11.90757 l 5.32057,-0.0151 3.69972,-4.55796 c 3.83854,-4.72908 8.44272,-8.53367 11.14912,-9.21294 2.37108,-0.5951 6.34548,1.61266 7.37426,4.09639 1.51939,3.66806 -0.096,9.31237 -3.74658,13.0911 l -2.99769,3.10288 -13.36752,-0.38003 c -11.25487,-0.31997 -13.7362,-0.20512 -15.69976,0.72666 -1.2827,0.60868 -5.61797,4.25707 -9.63396,8.10754 -7.30488,7.00384 -9.29856,8.47827 -15.00532,11.09733 -3.24099,1.48741 -10.25994,1.93028 -11.02304,0.69549 z m 64.90557,-26.69646 c 1.08338,-0.9038 1.58306,-2.09065 1.58306,-3.76016 0,-5.28766 -3.98249,-5.15533 -9.24755,0.30727 -1.87934,1.94984 -3.41695,3.83208 -3.41695,4.18276 0,0.35067 2.13713,0.62705 4.74919,0.61418 3.58961,-0.0177 5.13566,-0.34586 6.33225,-1.34405 z m -178.73593,15.43156 c -2.99673,-2.35723 -4.27441,-6.85822 -3.84482,-13.5445 0.20484,-3.18806 0.69263,-6.58801 1.084,-7.55544 0.39137,-0.96743 1.90744,-4.76678 3.36905,-8.443 1.46161,-3.67622 2.88219,-7.00066 3.15684,-7.38763 0.27465,-0.38697 1.35635,-2.86079 2.40378,-5.49738 2.78871,-7.0197 5.11199,-10.91244 5.66019,-9.48386 0.48476,1.26328 -1.42432,6.87821 -6.17016,18.14737 -3.58268,8.50721 -4.37834,12.35056 -3.34856,16.17487 0.67553,2.50873 4.11489,6.3398 5.69157,6.3398 0.64969,0 1.83295,-1.21852 3.68093,-3.79063 0.52481,-0.73044 1.30139,-1.20536 1.72574,-1.05537 0.50576,0.17876 0.12106,2.20697 -1.11673,5.88767 -1.38291,4.11224 -2.65627,6.41892 -4.75789,8.6189 -3.18604,3.33516 -4.86427,3.68916 -7.53394,1.5892 z m -76.73454,-11.57841 c -0.22734,-0.59244 0.47144,-1.89976 1.64014,-3.06845 2.02953,-2.02952 6.18301,-3.96089 16.195,-7.53066 2.90228,-1.0348 8.57369,-3.12945 12.60313,-4.65477 8.33167,-3.15389 10.21616,-3.14122 7.67937,0.0516 -1.23182,1.5504 -3.64224,2.78666 -9.72875,4.9897 -9.07643,3.28526 -9.57976,3.48129 -14.2399,5.54597 -1.8339,0.8125 -3.47402,1.47728 -3.64472,1.47728 -0.17071,0 -2.3625,0.94984 -4.87065,2.11075 -5.29765,2.45204 -5.11963,2.41796 -5.63362,1.07853 z m 277.53273,-14.14731 c -0.38197,-1.38326 -0.549,-2.89406 -0.37121,-3.35732 0.37543,-0.97843 -0.74467,-29.97713 -1.81144,-46.89641 -0.91403,-14.49611 -2.79154,-35.99046 -5.28539,-60.50817 -1.71252,-16.83591 -3.08831,-34.5623 -4.50505,-58.04563 -2.30177,-38.15145 -3.0095,-44.50373 -5.3765,-48.25322 -0.94737,-1.50074 -1.71034,-3.44729 -1.6955,-4.32566 0.0486,-2.86462 6.10978,-19.87995 7.15756,-20.09255 1.03026,-0.20902 3.58342,4.81232 6.54241,12.86684 0.85295,2.32182 1.73433,4.69642 1.95857,5.27687 0.22423,0.58046 1.22571,3.42997 2.22543,6.33226 0.99972,2.90228 2.09991,5.9101 2.44488,6.68404 1.96187,4.40167 5.79746,17.31551 5.42857,18.27696 -0.65729,1.71282 -2.56738,0.37164 -5.4095,-3.7983 -1.33843,-1.96372 -2.84846,-3.57101 -3.3556,-3.57176 -1.0024,-0.001 -1.01759,-0.32478 0.99121,21.10614 0.59853,6.38502 1.37227,14.77525 1.71948,18.64496 0.34722,3.86971 0.95167,10.36027 1.34322,14.42346 2.36601,24.55328 2.94104,30.71355 3.54648,37.99351 0.37008,4.45016 1.01196,11.89056 1.42644,16.53421 3.27948,36.74579 2.93183,68.84618 -0.88004,81.26388 -2.7871,9.07953 -3.95498,11.96092 -4.84797,11.96092 -0.30339,0 -0.86414,-1.13176 -1.24605,-2.51503 z M 299.6138,368.13391 c -0.49406,-0.19864 -1.56372,-1.66545 -2.37699,-3.2596 -1.25646,-2.46292 -1.41856,-3.69542 -1.07866,-8.20221 0.41223,-5.46697 1.91002,-10.1562 6.41323,-20.079 3.46311,-7.63094 3.73441,-8.25776 4.1871,-9.67427 0.21642,-0.6772 0.72004,-1.23127 1.11919,-1.23127 0.89707,0 0.95279,3.10362 0.0854,4.75873 -0.35214,0.67195 -1.34349,2.9631 -2.20299,5.09144 -0.85957,2.12834 -2.30529,5.61107 -3.21277,7.73941 -1.94822,4.569 -2.14403,9.20513 -0.50595,11.97812 1.87421,3.17285 4.91657,3.43799 6.22503,0.54252 0.37881,-0.83823 1.0845,-1.65008 1.56821,-1.8041 0.98249,-0.31286 1.20869,1.99152 0.29818,3.03852 -0.31964,0.36762 -0.99768,1.99623 -1.50672,3.61913 -1.79463,5.72175 -5.57829,8.86318 -9.01227,7.48258 z m 151.26959,-6.7491 c -2.38346,-2.53704 -3.67412,-6.46417 -3.67412,-11.17897 0,-4.25796 1.71464,-12.23363 2.91889,-13.57756 0.32949,-0.36762 0.59903,-1.07062 0.59903,-1.56221 0,-0.4916 0.8372,-2.72372 1.86049,-4.96026 1.02322,-2.23655 2.88047,-6.44105 4.12722,-9.34334 3.72385,-8.66883 5.38917,-11.96091 6.05067,-11.96091 0.34434,0 0.62612,0.61162 0.62612,1.35916 0,1.57331 -3.3779,10.95825 -6.03477,16.76688 -3.36897,7.36529 -4.71042,12.92045 -4.00761,16.59668 0.44241,2.31428 4.44376,6.7887 6.07101,6.7887 0.62661,0 1.93886,-1.26645 2.91593,-2.81434 3.8137,-6.04127 4.07396,-1.44274 0.37536,6.63259 -2.85022,6.22308 -5.23867,8.84625 -8.05462,8.84625 -1.45607,0 -2.81701,-0.57437 -3.7736,-1.59267 z m -114.3665,-10.12894 c -0.26061,-0.26061 -0.47379,-1.20072 -0.47379,-2.08914 0,-2.46583 -2.61966,-8.92758 -4.88977,-12.06139 -1.64927,-2.27673 -2.36108,-2.73855 -3.79773,-2.46392 -2.0665,0.39504 -7.52792,-3.55073 -7.44356,-5.3778 0.0922,-1.99693 2.48287,-5.32991 3.98172,-5.55125 2.44523,-0.36109 8.86754,7.63065 12.18874,15.16738 1.75424,3.98093 2.19919,3.02689 3.13158,-6.71553 0.65975,-6.89337 3.93324,-13.5125 6.68263,-13.5125 1.48323,0 6.95225,3.89763 7.51054,5.35261 0.46423,1.20962 -1.0617,4.49756 -2.08725,4.49756 -0.36727,0 -1.74953,-0.94984 -3.0717,-2.11075 -2.92241,-2.56591 -3.40936,-2.59977 -4.89005,-0.34001 -1.06846,1.63076 -1.5699,4.82671 -2.96539,18.90199 -0.37607,3.79309 -0.7966,5.05166 -1.94112,5.80935 -0.80356,0.53198 -1.67424,0.75401 -1.93485,0.4934 z M 269.00952,334.4065 c -0.52458,-0.52458 0.8677,-3.10508 2.30387,-4.27006 1.14783,-0.9311 9.91081,-4.57387 18.29313,-7.60445 2.90228,-1.04931 6.22678,-2.30413 7.38763,-2.78851 1.16091,-0.48437 3.21889,-1.27673 4.57329,-1.7608 1.3544,-0.48407 3.09576,-1.13659 3.86971,-1.45004 0.77401,-0.31344 4.57329,-1.73546 8.443,-3.16004 3.86971,-1.42458 7.98574,-2.98946 9.14658,-3.47751 1.16098,-0.48806 4.0105,-1.59785 6.33225,-2.46621 2.32183,-0.86836 4.8548,-1.8392 5.62867,-2.15742 0.77401,-0.31822 3.78176,-1.42651 6.68404,-2.46287 2.90228,-1.03635 6.66449,-2.50785 8.3604,-3.26998 3.72632,-1.67458 4.9616,-0.90925 2.855,1.76884 -1.89151,2.40471 -3.47872,3.19022 -12.97436,6.42099 -4.25661,1.44829 -11.53869,4.1487 -16.18241,6.00092 -4.64358,1.85221 -11.13421,4.37947 -14.42346,5.61612 -3.28919,1.23666 -6.9303,2.65857 -8.09121,3.1598 -1.16085,0.50123 -4.01043,1.62699 -6.33225,2.50167 -2.32183,0.8747 -5.17134,1.98284 -6.33222,2.46255 -1.16091,0.47971 -4.01043,1.58977 -6.33225,2.46681 -2.32183,0.87703 -5.8931,2.33783 -7.93617,3.24622 -3.94263,1.75298 -4.59322,1.90398 -5.27324,1.22397 z m 102.21275,-11.39198 c 0,-0.30926 3.8785,-2.88936 8.61889,-5.73357 10.15067,-6.09037 17.83472,-11.41394 22.63351,-15.68068 l 3.46092,-3.0772 -1.87786,-2.7635 c -2.4885,-3.66221 -2.38043,-5.59289 0.47288,-8.4462 2.8182,-2.8182 5.76995,-3.7611 7.22362,-2.30748 1.40695,1.40698 1.39725,5.3223 -0.0218,8.66862 -0.75171,1.77303 -1.03652,3.65675 -0.76972,5.09112 0.23345,1.25516 0.0535,2.96833 -0.40133,3.81795 l -0.82474,1.54117 -1.00605,-1.92012 -1.00605,-1.92012 -4.1515,3.84356 c -3.76023,3.48127 -18.67704,13.11649 -20.3064,13.11649 -0.36861,0 -0.7757,0.23746 -0.90467,0.52768 -0.2376,0.53454 -9.98181,5.80457 -10.7326,5.80457 -0.22409,0 -0.40745,-0.25303 -0.40745,-0.56229 z m 38.39419,-29.98794 c 0.70239,-2.79857 0.0925,-4.25925 -1.87413,-4.48862 -2.98763,-0.34844 -3.6599,1.30049 -1.6022,3.92974 2.11785,2.70607 2.90558,2.83272 3.47633,0.55888 z m -130.16161,25.92668 c -2.47803,-2.47802 -0.23202,-12.87823 4.02641,-18.6444 l 1.26232,-1.70926 -0.41574,2.01249 c -0.22865,1.10687 -1.05445,3.37131 -1.83511,5.03209 -1.46388,3.11426 -1.91316,6.56835 -1.03846,7.98365 0.2878,0.46565 1.23098,0.62387 2.22775,0.37369 1.64996,-0.41411 1.69381,-0.34222 0.96329,1.5792 -0.82175,2.16135 -2.65348,4.47817 -3.54055,4.47817 -0.29935,0 -1.04181,-0.49753 -1.64991,-1.10563 z m 79.46906,-4.49981 c -0.25653,-0.41506 -0.57272,-4.78519 -0.7026,-9.71142 -0.44846,-17.00595 -1.13889,-32.9068 -1.79421,-41.3216 -0.36171,-4.64366 -1.13973,-15.8834 -1.72898,-24.97722 -0.58925,-9.09381 -1.38874,-21.28339 -1.77655,-27.08796 -0.38782,-5.80456 -0.70316,-12.05766 -0.70063,-13.89577 0,-1.83811 -0.21164,-3.34202 -0.47583,-3.34202 -0.2642,0 -4.55965,2.24786 -9.54545,4.99526 -11.86481,6.53801 -13.66746,5.38897 -2.06642,-1.31716 2.20059,-1.27207 4.9509,-2.76961 6.11181,-3.32785 1.16092,-0.55824 2.81399,-1.5778 3.67348,-2.26568 1.56224,-1.25032 1.56252,-1.2547 0.86309,-14.61878 -1.46824,-28.05263 -1.79421,-30.97233 -3.785,-33.90197 -0.99381,-1.46258 -1.80694,-3.41307 -1.80694,-4.33443 0,-0.92136 1.30325,-5.6762 2.89609,-10.56632 1.59284,-4.89012 3.04201,-9.36604 3.2203,-9.9465 0.92036,-2.99591 5.11224,6.20107 13.17108,28.89723 1.70774,4.80947 3.9744,11.15522 5.03703,14.10166 1.82516,5.061 1.94027,7.65912 0.33933,7.65912 -0.73608,0 -5.9915,-6.31679 -6.56956,-7.8963 -0.22578,-0.61699 -0.57026,-0.67356 -1.09949,-0.18056 -0.92712,0.86363 0.48892,21.44494 1.47548,21.44494 1.15177,0 14.22674,-9.74023 19.16688,-14.2784 l 4.92058,-4.52019 -2.66531,-2.9502 c -1.46592,-1.6226 -2.97173,-3.75602 -3.34618,-4.74093 -2.66637,-7.01318 10.38518,-18.19495 15.12465,-12.95787 2.03435,2.2479 1.775,8.75292 -0.52691,13.21573 -2.02555,3.92711 -2.3537,6.46708 -1.13073,8.75224 0.56055,1.04734 0.51981,2.24622 -0.15359,4.52703 -0.50384,1.70634 -1.16352,3.10243 -1.46606,3.10243 -0.30247,0 -0.55161,-0.23746 -0.55358,-0.52769 0,-0.29023 -0.74537,-1.75317 -1.65208,-3.25098 l -1.6485,-2.72328 -2.74531,3.03884 c -1.50989,1.67136 -3.69508,3.94558 -4.85599,5.0538 -2.35335,2.24652 -15.44134,11.22169 -17.50748,12.00587 -1.1436,0.43404 -1.25808,0.95848 -0.83621,3.83102 1.57307,10.71079 3.90039,51.85756 3.92902,69.46497 0.0443,27.09945 -1.4123,40.41347 -5.63872,51.54756 -1.27103,3.34837 -2.31958,4.34792 -3.15051,3.00338 z m 34.04056,-157.7309 c 1.68065,-4.82113 0.52614,-8.33801 -2.73715,-8.33801 -2.41463,0 -5.63697,1.33373 -5.63697,2.33317 0,1.41673 5.87612,8.22058 7.09965,8.22058 0.27616,0 0.84965,-0.99708 1.27447,-2.21574 z m 62.68781,138.13267 c 0,-2.3328 -2.29615,-8.16024 -4.72133,-11.98261 -1.93204,-3.04501 -2.67186,-3.69224 -3.86415,-3.38044 -1.67186,0.4372 -7.14046,-2.96178 -7.88443,-4.90051 -0.54007,-1.4073 2.65462,-6.59794 4.06073,-6.59794 1.86478,0 7.33345,6.54563 10.31672,12.3484 1.67615,3.26026 3.1676,5.80769 3.3143,5.66098 0.14677,-0.14673 0.7045,-3.6012 1.23943,-7.67661 0.98966,-7.53993 2.52115,-11.70999 5.18527,-14.11938 1.27855,-1.15624 1.73433,-1.21214 3.59602,-0.44099 1.17259,0.48569 3.05756,1.93731 4.18892,3.22581 1.82235,2.07553 1.96236,2.5465 1.22803,4.12931 -1.05073,2.26464 -2.59544,2.27733 -4.6986,0.0386 -1.80659,-1.92302 -3.63696,-2.25573 -4.7869,-0.87012 -1.2172,1.46664 -2.20179,6.71618 -2.93422,15.64407 -0.54211,6.60783 -0.9542,8.63305 -1.89707,9.32248 -1.66616,1.2183 -2.34272,1.10248 -2.34272,-0.40107 z m -72.28546,-10.28565 c -4.3352,-4.925 -6.01613,-12.85606 -4.44032,-20.95027 1.68896,-8.67511 4.83609,-17.09721 12.78601,-34.21663 1.5004,-3.23094 2.72801,-6.03782 2.72801,-6.23752 0,-0.19969 1.10814,-2.72938 2.46254,-5.62152 1.3544,-2.89213 2.46254,-5.54682 2.46254,-5.8993 0,-1.09408 1.42729,-0.70347 1.89637,0.51899 0.5407,1.40914 -3.30881,13.44869 -6.56324,20.52671 -1.30296,2.83381 -2.36896,5.291 -2.36896,5.46044 0,0.16945 -0.66482,1.80854 -1.47732,3.64243 -2.34103,5.28397 -2.58243,5.95696 -3.38902,9.45048 -1.64307,7.11611 -0.0478,12.9665 4.47705,16.41768 4.08606,3.11658 6.3587,2.21974 9.67898,-3.81955 1.60269,-2.91511 2.93725,-2.85697 2.44657,0.1066 -0.81447,4.91942 -1.43003,6.73261 -4.38424,12.91311 -3.71041,7.76251 -6.78127,10.83283 -10.83469,10.83283 -2.34828,0 -3.11462,-0.43691 -5.48028,-3.12448 z m -43.08646,-1.42978 c -1.7171,-2.069 -1.10526,-6.38568 1.82572,-12.88028 0.92205,-2.04306 1.67643,-4.02189 1.67643,-4.3974 0,-0.3755 0.2934,-0.68273 0.65194,-0.68273 0.35862,0 0.82123,-0.55407 1.02808,-1.23127 0.20678,-0.6772 0.22479,-0.0926 0.0401,1.299 -0.18483,1.39165 -0.9435,3.78759 -1.68599,5.32431 -2.05545,4.25428 -2.33062,6.05045 -1.16816,7.62426 0.83311,1.12795 1.21628,1.23266 1.93105,0.52768 2.32999,-2.29818 2.76192,0.32028 0.56231,3.40931 -1.58827,2.23053 -3.51483,2.62964 -4.86141,1.00712 z M 134.32927,272.39111 c -4.31169,-3.77091 -3.74281,-13.06336 1.49677,-24.44952 0.89036,-1.93485 2.36095,-5.25929 3.26799,-7.38763 2.82655,-6.63249 3.34304,-7.46507 3.83524,-6.18243 0.50339,1.31181 -0.67556,5.00825 -4.10367,12.86648 -1.35051,3.09576 -2.67594,6.98473 -2.94542,8.64215 -0.42271,2.6 -0.23465,3.34817 1.37061,5.45277 2.24638,2.94516 3.33486,3.05079 5.19803,0.50443 1.2614,-1.72394 1.46903,-1.79727 1.90477,-0.67268 0.58329,1.50539 -2.43259,8.55921 -4.64947,10.87464 -1.82043,1.90136 -3.47896,2.00991 -5.37485,0.35179 z m 53.64738,-18.64496 c -0.14835,-0.48371 -0.43693,-2.07795 -0.6413,-3.54276 -0.76376,-5.47438 -8.38272,-18.65252 -9.62338,-16.64509 -0.31288,0.50624 -1.22386,0.67915 -2.23763,0.42471 -2.27404,-0.57075 -8.2913,-5.20741 -8.2913,-6.38895 0,-1.10357 3.35148,-7.2581 4.25728,-7.81792 2.63424,-1.62805 10.86433,8.12991 15.89259,18.84297 1.04436,2.22508 2.12241,4.0456 2.39566,4.0456 0.67991,0 1.37631,-3.7593 1.37631,-7.42957 0,-7.93522 4.10295,-19.34519 7.51553,-20.90006 2.00986,-0.91575 4.65591,0.14133 8.16226,3.26077 2.98368,2.65445 3.37154,4.99109 1.25774,7.57723 l -1.35763,1.66101 -2.68797,-2.53777 c -3.32508,-3.13928 -4.59935,-3.60944 -6.3877,-2.35683 -1.88313,1.31899 -2.89224,5.7278 -3.68336,16.09251 -1.11726,14.63759 -1.62818,16.59363 -4.33427,16.59363 -0.73871,0 -1.46448,-0.39576 -1.61283,-0.87948 z m 255.89363,-2.11075 c -0.81039,-0.87068 -1.8621,-3.48273 -2.33702,-5.80456 -1.11884,-5.46937 0.0831,-10.49856 5.44243,-22.77265 2.1346,-4.88872 4.52734,-10.39251 5.31726,-12.23062 0.78991,-1.83812 1.71055,-3.34203 2.04595,-3.34203 0.8018,0 0.78358,3.20355 -0.0267,4.75874 -0.35024,0.67195 -1.82186,4.22954 -3.27026,7.90577 -1.44839,3.67622 -2.90312,7.03305 -3.23282,7.45963 -1.00233,1.297 -1.48836,8.9412 -0.6976,10.97263 0.9727,2.49889 3.86527,4.40656 5.38881,3.55396 0.62971,-0.3524 1.51742,-1.37112 1.97271,-2.26385 1.01372,-1.98778 2.30972,-1.6614 2.03146,0.51163 -0.30817,2.40689 -2.84691,7.97657 -4.80745,10.54699 -2.16936,2.84409 -5.55148,3.14849 -7.82638,0.70436 z M 130.26446,227.24573 c 0.76319,-0.74102 7.24496,-4.33221 14.40392,-7.98042 18.79126,-9.57602 33.73313,-18.54383 36.54772,-21.9352 0.70415,-0.84845 0.23365,-1.46959 -2.72115,-3.5924 -2.39991,-1.72416 -3.57163,-3.06452 -3.56986,-4.08365 0.004,-1.88574 1.8961,-4.95357 5.12221,-8.30187 1.35837,-1.40982 2.68581,-3.54695 2.94987,-4.74919 0.60363,-2.74833 1.65104,-2.7446 5.83012,0.0208 8.09145,5.3543 13.46819,16.02826 10.41843,20.68278 -1.77239,2.70499 -3.65513,3.10833 -7.56852,1.62136 -1.87096,-0.71094 -3.8368,-1.29259 -4.36854,-1.29259 -0.53173,0 -5.12595,3.12023 -10.20937,6.93386 -7.22578,5.42083 -11.96446,8.277 -21.71623,13.08911 -6.8605,3.38539 -13.10687,6.42839 -13.88081,6.76222 -0.77394,0.33383 -3.26708,1.40921 -5.54032,2.38972 -2.27323,0.98052 -4.79734,1.78276 -5.60912,1.78276 -1.46815,0 -1.46862,-0.007 -0.0883,-1.34732 z m 67.17267,-33.52919 c 0,-1.84287 -7.19744,-9.625 -8.01405,-8.66508 -0.12689,0.14916 -0.42916,1.78677 -0.67171,3.63911 -0.31313,2.39134 -0.18886,3.43457 0.42857,3.5978 0.47826,0.12644 1.8194,0.55603 2.98031,0.95464 2.38273,0.81814 5.27688,1.07786 5.27688,0.47353 z m -10.91056,-5.19808 c 0.63979,-3.78692 -0.0516,-5.65834 -2.0906,-5.65834 -1.77317,0 -5.53397,3.83126 -5.09411,5.18956 0.2724,0.8412 4.52454,3.16294 5.89661,3.21965 0.4497,0.0186 1.02935,-1.2193 1.2881,-2.75087 z m 30.04092,27.86388 c -6.5166,-6.6222 -8.20326,-8.8968 -6.59721,-8.8968 0.31474,0 2.85317,-2.69268 5.64096,-5.98374 l 5.06872,-5.98375 -6.51519,-6.25407 -6.51519,-6.25408 3.83938,-4.47228 c 6.01691,-7.00876 6.62405,-7.65021 7.95776,-8.40741 1.05361,-0.59818 2.37275,0.44585 8.25913,6.53671 3.85289,3.98672 7.00884,7.57313 7.01323,7.96979 0.004,0.39667 -2.24765,3.49294 -5.00452,6.88059 l -5.01249,6.15937 3.80186,4.02495 c 6.48528,6.86585 7.63043,8.20872 7.62607,8.94286 -0.008,1.37458 -10.03007,13.02348 -11.20451,13.02348 -0.6537,0 -4.41481,-3.27853 -8.358,-7.28562 z m 67.93809,-4.55142 c -8.54114,-5.11237 -9.95437,-6.50724 -8.35886,-8.25026 0.33652,-0.36763 2.12841,-3.59707 3.98199,-7.17655 2.35229,-4.54256 3.75187,-6.50815 4.63407,-6.50815 2.15863,0 18.21182,10.0224 18.21182,11.37009 0,0.42209 -1.64455,4.21045 -3.65455,8.41856 -2.42089,5.06815 -4.02414,7.62826 -4.74919,7.58345 -0.60205,-0.0372 -5.13144,-2.48393 -10.06528,-5.43714 z m 95.6287,2.92498 c -1.03469,-1.03471 -0.35834,-3.6941 1.64174,-6.45511 1.16091,-1.6026 2.11075,-3.20881 2.11075,-3.56937 0,-0.36055 -0.94984,-1.60538 -2.11075,-2.7663 -2.35539,-2.35535 -2.76867,-5.78965 -1.32541,-11.01379 1.14269,-4.13635 5.5346,-8.09121 8.98539,-8.09121 3.58785,0 5.00452,1.65878 5.00452,5.85997 0,1.80764 -0.20116,3.28662 -0.44706,3.28662 -0.24583,0 -1.18054,-0.79153 -2.07712,-1.75896 -2.97988,-3.21534 -8.03865,-1.60494 -9.17451,2.92058 -1.16563,4.64418 1.41983,5.8097 10.11872,4.56157 10.10487,-1.44988 9.64057,-1.51404 9.88218,1.36583 0.19785,2.35792 0.0211,2.59943 -2.81433,3.85008 -4.05736,1.78953 -9.93587,5.54207 -14.4801,9.24339 -3.77508,3.07488 -4.47015,3.41058 -5.31402,2.5667 z M 148.11852,204.47294 c -2.65089,-2.02297 -3.65363,-5.46586 -3.18985,-10.95237 0.24357,-2.88137 0.7159,-5.58802 1.04964,-6.0148 0.33373,-0.42676 0.82122,-1.67229 1.08331,-2.76783 0.26209,-1.09554 1.51277,-4.26167 2.77928,-7.03583 1.26652,-2.77417 2.73517,-6.15209 3.26366,-7.50649 1.42652,-3.65578 2.5773,-5.18528 3.17442,-4.21911 0.44339,0.71742 -0.70416,4.76161 -2.49487,8.79241 -4.79964,10.80376 -5.38274,13.29948 -3.92335,16.7923 0.56141,1.34363 1.7302,2.82267 2.59732,3.28673 1.36816,0.73222 1.74602,0.62344 2.85826,-0.82284 0.70491,-0.91664 1.2887,-1.90407 1.29731,-2.1943 0.009,-0.29023 0.33226,-0.52768 0.71923,-0.52768 2.22579,0 -2.12224,10.88459 -5.13715,12.86004 -2.16868,1.42097 -2.58013,1.45223 -4.07721,0.30977 z m 134.95077,-32.34246 c -2.41008,-2.28108 -4.75092,-8.21086 -4.69501,-11.89331 0.082,-5.39872 3.48874,-15.15608 10.97318,-31.42846 1.30339,-2.83379 2.36981,-5.29099 2.36981,-5.46043 0,-0.16945 0.66812,-1.72939 1.4847,-3.46654 1.53818,-3.27233 2.7368,-4.09716 2.7368,-1.88327 0,1.83331 -3.64864,12.30856 -6.29517,18.07336 -3.20776,6.98723 -3.35028,7.36274 -4.21811,11.11404 -0.98761,4.26902 -0.0737,7.97698 2.58678,10.49559 3.18069,3.01104 5.13567,2.87513 7.22292,-0.50213 2.06417,-3.33989 3.10934,-3.18244 2.5393,0.38252 -0.25026,1.56479 -0.72357,3.38531 -1.05186,4.0456 -0.32829,0.6603 -1.53163,3.10022 -2.67418,5.42205 -1.96848,4.00045 -5.48146,7.38762 -7.66197,7.38762 -0.49568,0 -1.98841,-1.02899 -3.31719,-2.28664 z m -98.29666,-10.26881 c 0,-0.88577 1.94868,-2.39337 6.96878,-5.39142 5.37618,-3.2107 9.3593,-6.57723 8.81804,-7.45301 -0.67459,-1.09151 -13.09065,-0.74589 -15.33956,0.42701 -4.60111,2.39964 -4.40827,0.35507 0.7512,-7.96454 3.06758,-4.94646 3.31659,-5.05609 11.48369,-5.05609 9.58443,0 11.94654,0.74473 11.9342,3.76264 -0.0113,2.76899 -5.5561,14.37346 -7.81301,16.35151 -1.74287,1.52755 -3.70907,2.3507 -9.06393,3.79466 -1.74136,0.46957 -3.71589,1.13951 -4.38784,1.48876 -1.53862,0.79972 -3.35157,0.82162 -3.35157,0.0405 z m 39.72081,-7.19502 c -2.98436,-4.72753 -2.49936,-11.05827 1.64017,-21.40916 3.93897,-9.84939 7.89911,-17.94137 8.78033,-17.94137 1.02446,0 0.11434,2.97603 -4.16532,13.62028 -4.2934,10.67845 -4.53399,13.2124 -1.55546,16.3829 2.00602,2.13531 3.67373,2.10243 5.1174,-0.10089 1.28133,-1.95556 2.52724,-2.31231 2.52724,-0.72364 0,1.87597 -3.5588,9.12948 -5.44674,11.1015 -2.68078,2.80016 -4.71629,2.52583 -6.89762,-0.92962 z M 257.9453,134.4621 c 0,-0.30489 3.48274,-2.83415 7.73942,-5.62058 4.25668,-2.78643 7.73942,-5.52539 7.73942,-6.08658 0,-2.30834 -12.24876,-2.33343 -15.76076,-0.0323 -3.8116,2.49746 -2.57815,-2.05166 2.73195,-10.07577 2.23154,-3.37208 3.0663,-3.641 11.34076,-3.65342 12.10364,-0.0182 13.14464,1.46257 8.28126,11.77947 -4.52235,9.59348 -5.24613,10.20075 -15.36824,12.89446 -5.50513,1.46504 -6.70381,1.60713 -6.70381,0.7947 z"
         id="path19884" />
    </g>
  </g>
  <metadata
     id="metadata20831">
    <rdf:RDF>
      <cc:Work
         rdf:about="">
        <dc:title>Usul Al-Fiqh Caligraphy</dc:title>
        <dc:date>14 Jan 2025</dc:date>
        <dc:creator>
          <cc:Agent>
            <dc:title>Kaim Amin</dc:title>
          </cc:Agent>
        </dc:creator>
      </cc:Work>
    </rdf:RDF>
  </metadata>
</svg>
